<svg width="100%" height="100%" viewBox="0 0 431 59" version="1.1" xmlns="http://www.w3.org/2000/svg" xmlns:xlink="http://www.w3.org/1999/xlink" xml:space="preserve" xmlns:serif="http://www.serif.com/" style="fill-rule:evenodd;clip-rule:evenodd;stroke-linecap:round;stroke-linejoin:round;stroke-miterlimit:1.5;"><g transform="matrix(1,0,0,1,-10,-2)"><g id="Bergwacht"></g><g id="Schwesternschaft"></g><g id="JRK"></g><g id="WW"></g><g id="BRK"></g><g id="DRK" transform="matrix(1,0,0,1,0.559372,1.81141)"><g id="Beschriftung" transform="matrix(1,0,0,1,96.165,0)"><g id="line3" transform="matrix(0.936334,0,0,1,-64.3047,39.6912)"><g transform="matrix(1.068,0,0,1,-13.7389,0)"><text id="f" x="202.057px" y="15.25px" style="font-family:'ArialMT', 'Arial', sans-serif;font-size:20px;"></text></g></g><g id="line2" transform="matrix(0.934693,0,0,1,-63.6098,20.1375)"><g transform="matrix(1.06987,0,0,1,-14.1177,0)"><text id="f1" serif:id="f" x="202.057px" y="15.25px" style="font-family:'ArialMT', 'Arial', sans-serif;font-size:20px;">Rhein-Main-Taunus</text></g></g><g id="line1" transform="matrix(0.936801,0,0,1,-64.1996,0.204079)"><g transform="matrix(1.06746,0,0,1,-13.6312,0)"><text id="f2" serif:id="f" x="202.057px" y="15.25px" style="font-family:'ArialMT', 'Arial', sans-serif;font-size:20px;">Rettungsdienst</text></g></g></g><g transform="matrix(0.0894207,0,0,1.13566,184.16,-3.04006)"><g id="Linie"><rect x="201.423" y="2.583" width="0.97" height="49.778" style="fill:rgb(235,235,235);stroke:black;stroke-width:1.24px;"/></g></g><g id="Logo"><g transform="matrix(1,0,0,1,9.97554,0.135392)"><g id="DRK-Logo-Text" serif:id="DRK Logo Text"><path d="M68.75,0.01L75.29,0.01C79.2,0.01 82.12,2.47 82.12,7.45C82.12,11.82 79.89,15.06 75.29,15.06L68.78,15.06L68.78,0.01M72.08,12.31L75.03,12.31C76.94,12.31 78.79,11.12 78.79,7.8C78.79,4.76 77.75,2.82 74.45,2.82L72.08,2.82L72.08,12.31ZM86.41,10.37C86.5,12.28 87.42,13.15 89.1,13.15C90.32,13.15 91.28,12.43 91.48,11.73L94.12,11.73C93.28,14.31 91.49,15.41 89.02,15.41C85.58,15.41 83.43,13.04 83.43,9.68C83.43,6.32 85.69,3.92 89.02,3.92C92.73,3.92 94.55,7.05 94.32,10.4L86.42,10.37M91.31,8.46C91.05,6.93 90.38,6.15 88.94,6.15C87.03,6.15 86.48,7.62 86.45,8.46L91.31,8.46ZM106.31,15.12L103.47,15.12L103.47,13.59L103.41,13.59C102.69,14.74 101.44,15.44 100.08,15.44C96.9,15.44 96.08,13.62 96.08,10.95L96.08,4.18L99.09,4.18L99.09,10.35C99.09,12.17 99.61,13.04 101,13.04C102.62,13.04 103.32,12.14 103.32,9.91L103.32,4.18L106.33,4.18L106.3,15.12M112.52,4.18L114.72,4.18L114.72,6.18L112.52,6.18L112.52,11.62C112.52,12.63 112.78,12.9 113.79,12.9C114.11,12.9 114.4,12.87 114.72,12.81L114.72,15.16C114.2,15.25 113.56,15.27 112.92,15.27C111.07,15.27 109.48,14.84 109.48,12.67L109.48,6.2L107.68,6.2L107.68,4.17L109.53,4.17L109.53,0.91L112.54,0.91L112.51,4.18M118.65,11.56C118.68,12.86 119.78,13.41 120.96,13.41C121.83,13.41 122.93,13.06 122.93,12.02C122.93,11.12 121.69,10.8 119.54,10.34C117.8,9.96 116.07,9.36 116.07,7.42C116.07,4.64 118.47,3.92 120.81,3.92C123.15,3.92 125.38,4.73 125.62,7.39L122.75,7.39C122.67,6.23 121.77,5.91 120.69,5.91C120.02,5.91 119.01,6.03 119.01,6.92C119.01,7.99 120.69,8.14 122.4,8.54C124.19,8.94 125.87,9.58 125.87,11.61C125.87,14.48 123.38,15.4 120.89,15.4C118.4,15.4 115.88,14.44 115.77,11.55L118.63,11.55M134.93,7.99C134.73,6.77 133.95,6.11 132.7,6.11C130.79,6.11 130.15,8.05 130.15,9.67C130.15,11.29 130.76,13.11 132.64,13.11C134.03,13.11 134.84,12.21 135.02,10.88L137.92,10.88C137.54,13.78 135.54,15.37 132.65,15.37C129.35,15.37 127.12,13.05 127.12,9.78C127.12,6.51 129.15,3.88 132.71,3.88C135.29,3.88 137.66,5.24 137.83,8.02L134.94,7.99M139.63,-0L142.64,-0L142.64,5.68L142.7,5.68C143.46,4.47 144.76,3.83 145.89,3.83C149.08,3.83 149.88,5.65 149.88,8.32L149.88,15.06L146.87,15.06L146.87,8.9C146.87,7.08 146.35,6.21 144.96,6.21C143.34,6.21 142.64,7.11 142.64,9.34L142.64,15.07L139.63,15.07L139.63,0.01M154.51,10.37C154.6,12.28 155.52,13.15 157.2,13.15C158.42,13.15 159.37,12.43 159.57,11.73L162.2,11.73C161.36,14.31 159.57,15.41 157.08,15.41C153.64,15.41 151.49,13.04 151.49,9.68C151.49,6.32 153.75,3.92 157.08,3.92C160.79,3.92 162.61,7.05 162.38,10.4L154.51,10.37M159.37,8.46C159.08,6.93 158.45,6.15 157,6.15C155.09,6.15 154.54,7.62 154.51,8.46L159.37,8.46ZM166.46,11.56C166.49,12.86 167.59,13.41 168.75,13.41C169.62,13.41 170.72,13.06 170.72,12.02C170.72,11.12 169.48,10.8 167.33,10.34C165.59,9.96 163.86,9.36 163.86,7.42C163.86,4.64 166.26,3.92 168.61,3.92C170.96,3.92 173.18,4.73 173.42,7.39L170.55,7.39C170.46,6.23 169.57,5.91 168.49,5.91C167.83,5.91 166.81,6.03 166.81,6.92C166.81,7.99 168.49,8.14 170.2,8.54C171.94,8.94 173.67,9.58 173.67,11.61C173.67,14.48 171.18,15.4 168.69,15.4C166.2,15.4 163.68,14.44 163.57,11.55L166.46,11.55M68.79,19.77L76.92,19.77C79.61,19.77 81.32,21.65 81.32,23.94C81.32,25.73 80.6,27.04 78.95,27.73L78.95,27.79C80.57,28.22 81.03,29.79 81.15,31.32C81.21,32.28 81.18,34.04 81.79,34.88L78.46,34.88C78.06,33.92 78.11,32.48 77.94,31.26C77.71,29.67 77.1,28.97 75.42,28.97L72.09,28.97L72.09,34.85L68.76,34.85L68.79,19.77M72.09,26.6L75.7,26.6C77.18,26.6 77.99,25.96 77.99,24.46C77.99,22.96 77.18,22.38 75.7,22.38L72.09,22.38L72.09,26.6ZM88.76,23.65C92.2,23.65 94.4,25.94 94.4,29.41C94.4,32.88 92.17,35.14 88.76,35.14C85.35,35.14 83.12,32.85 83.12,29.41C83.09,25.94 85.35,23.65 88.76,23.65M88.76,32.91C90.82,32.91 91.42,31.11 91.42,29.44C91.42,27.64 90.81,25.94 88.76,25.94C86.71,25.94 86.12,27.73 86.12,29.44C86.12,31.15 86.7,32.91 88.76,32.91M100.11,23.91L102.31,23.91L102.31,25.91L100.11,25.91L100.11,31.35C100.11,32.36 100.37,32.62 101.38,32.62C101.7,32.62 101.99,32.59 102.31,32.54L102.31,34.89C101.79,34.97 101.15,35 100.52,35C98.66,35 97.07,34.57 97.07,32.4L97.07,25.94L95.22,25.94L95.22,23.94L97.07,23.94L97.07,20.67L100.08,20.67L100.08,23.91M106.28,30.16C106.37,32.07 107.29,32.94 108.97,32.94C110.19,32.94 111.14,32.19 111.35,31.52L113.98,31.52C113.14,34.1 111.35,35.2 108.86,35.2C105.41,35.2 103.27,32.83 103.27,29.47C103.27,26.11 105.53,23.71 108.86,23.71C112.56,23.71 114.39,26.84 114.16,30.2L106.28,30.17M111.17,28.26C110.88,26.72 110.24,25.94 108.8,25.94C106.89,25.94 106.34,27.42 106.31,28.26L111.17,28.26ZM118.26,31.33C118.29,32.63 119.39,33.18 120.57,33.18C121.44,33.18 122.54,32.84 122.54,31.79C122.54,30.89 121.29,30.57 119.15,30.11C117.41,29.73 115.68,29.13 115.68,27.19C115.68,24.41 118.08,23.69 120.43,23.69C122.78,23.69 125,24.5 125.23,27.16L122.42,27.16C122.34,26 121.47,25.68 120.37,25.68C119.71,25.68 118.69,25.8 118.69,26.69C118.69,27.76 120.37,27.9 122.08,28.31C123.87,28.71 125.55,29.35 125.55,31.38C125.55,34.25 123.06,35.17 120.57,35.17C118.08,35.17 115.56,34.21 115.45,31.32L118.26,31.32M68.73,39.57L72.06,39.57L72.06,45.85L77.96,39.57L82.1,39.57L76.22,45.5L82.68,54.65L78.51,54.65L73.97,47.87L72.06,49.81L72.06,54.64L68.73,54.64L68.73,39.56L68.73,39.57ZM83.7,43.72L86.54,43.72L86.54,45.75L86.57,45.75C87.12,44.39 88.6,43.43 90.05,43.43C90.25,43.43 90.51,43.46 90.72,43.55L90.72,46.33C90.37,46.26 90.01,46.22 89.65,46.21C87.45,46.21 86.7,47.8 86.7,49.71L86.7,54.63L83.69,54.63L83.72,43.72M94.02,49.94C94.11,51.85 95.03,52.69 96.71,52.69C97.9,52.69 98.88,51.94 99.08,51.27L101.72,51.27C100.88,53.85 99.08,54.95 96.6,54.95C93.16,54.95 91.01,52.58 91.01,49.22C91.01,45.86 93.27,43.46 96.6,43.46C100.31,43.46 102.13,46.59 101.9,49.94L94.02,49.94M98.88,48.03C98.59,46.49 97.95,45.71 96.51,45.71C94.6,45.71 94.05,47.19 94.02,48.02L98.88,48.02L98.88,48.03ZM113.7,54.67L110.86,54.67L110.86,53.16L110.8,53.16C110.09,54.31 108.83,55.01 107.47,55.01C104.29,55.01 103.48,53.19 103.48,50.52L103.48,43.8L106.49,43.8L106.49,49.97C106.49,51.79 107.01,52.66 108.4,52.66C110.02,52.66 110.72,51.77 110.72,49.54L110.72,43.81L113.73,43.81L113.7,54.66M115.38,52.4L121.03,46L115.82,46L115.82,43.71L125,43.71L125,46L119.36,52.4L125.41,52.4L125.41,54.66L115.39,54.66L115.39,52.4L115.38,52.4Z" style="fill:rgb(51,51,51);fill-rule:nonzero;"/></g></g><g transform="matrix(1,0,0,1,9.97554,0.135392)"><g id="Rotkreuz-Logo" serif:id="Rotkreuz Logo"><path d="M36.39,0.1L36.39,18.3L54.57,18.3L54.57,36.54L36.39,36.54L36.39,54.75L18.18,54.75L18.18,36.54L0,36.54L0,18.3L18.18,18.3L18.18,0.1L36.39,0.1Z" style="fill:rgb(230,0,5);fill-rule:nonzero;"/></g></g></g></g></g></svg>